<?xml version="1.0" standalone="no"?>
<!DOCTYPE svg PUBLIC "-//W3C//DTD SVG 20010904//EN"
 "http://www.w3.org/TR/2001/REC-SVG-20010904/DTD/svg10.dtd">

<svg version="1.0" xmlns="http://www.w3.org/2000/svg"
 viewBox="0 0 2600.000000 2600.000000"
 preserveAspectRatio="xMidYMid meet">
<circle cx="1300" cy="1300" r="1240" fill="none" stroke="#41261D" stroke-width="23"> </circle>
<circle cx="1300" cy="1300" r="1200" fill="#41261D"> </circle>
<g transform="translate(275.000000,1725.000000) scale(0.02500000,-0.02500000)"
fill="#fff0dd" stroke="none">
<path  d="M15840 23239 c-426 -49 -829 -292 -1175 -709 -269 -324 -437 -735
-502 -1227 -20 -155 -23 -539 -4 -688 42 -347 127 -657 256 -945 100 -223 217
-408 576 -905 575 -796 814 -1171 1040 -1628 214 -434 324 -789 347 -1123 26
-373 -56 -680 -252 -951 -34 -46 -46 -53 -46 -25 0 28 -48 209 -82 307 -133
392 -346 731 -645 1027 -387 383 -861 638 -1468 788 -626 155 -1362 178 -2210
69 -420 -54 -1079 -181 -1117 -216 -23 -21 -23 -75 0 -96 26 -24 57 -21 234
18 917 202 1806 269 2508 189 614 -70 1135 -246 1555 -526 175 -116 278 -200
415 -338 361 -364 620 -868 691 -1350 15 -94 32 -120 79 -120 73 0 290 295
371 505 79 203 103 334 103 575 1 425 -119 842 -404 1405 -220 435 -443 785
-955 1500 -374 522 -466 660 -555 835 -148 292 -227 544 -282 895 -25 166 -35
530 -19 700 47 493 199 898 455 1215 279 345 597 567 941 656 125 32 355 44
498 24 164 -22 348 -85 489 -166 42 -24 89 -44 103 -44 32 0 65 33 65 65 0 39
-40 71 -163 130 -279 134 -565 186 -847 154z" />
<path  d="M16924 22922 c-32 -21 -34 -52 -34 -582 l0 -531 25 -24 c17 -18 35
-25 62 -25 105 -1 271 -67 396 -158 308 -224 649 -684 949 -1277 50 -99 98
-185 107 -192 25 -19 66 -15 88 10 38 40 124 338 165 564 33 186 33 507 0 671
-116 575 -486 1024 -1098 1330 -274 137 -612 247 -660 214z m217 -181 c689
-235 1165 -649 1347 -1171 59 -169 77 -292 76 -520 0 -147 -5 -233 -17 -305
-21 -121 -76 -353 -85 -359 -4 -2 -38 53 -75 122 -399 741 -832 1225 -1210
1350 -53 18 -107 32 -121 32 l-26 0 0 440 c0 356 2 440 13 440 7 0 51 -13 98
-29z"/>
<path  d="M18014 21774 c-289 -175 -291 -177 -278 -229 7 -30 55 -58 81 -48 30
11 446 264 471 286 46 42 18 117 -44 117 -12 0 -116 -57 -230 -126z"/>
<path d="M15995 22561 c-166 -77 -146 -313 31 -360 164 -44 296 139 208 287
-47 80 -153 113 -239 73z" />
<path d="M15206 22349 c-40 -31 -33 -64 43 -217 163 -325 365 -554 586 -666
308 -154 658 -116 997 110 54 36 102 73 108 84 18 33 11 67 -16 89 -35 27 -56
26 -92 -4 -57 -48 -201 -132 -279 -163 -239 -96 -439 -95 -640 4 -216 105
-388 301 -549 626 -80 161 -103 181 -158 137z"/>
<path d="M15209 21890 c-24 -14 -94 -136 -130 -226 -154 -383 -126 -845 86
-1463 79 -229 168 -434 316 -731 233 -466 442 -810 947 -1564 362 -541 395
-593 483 -767 156 -313 249 -614 280 -917 18 -179 7 -477 -24 -642 -46 -239
-106 -417 -217 -645 -182 -372 -516 -803 -805 -1040 -378 -309 -797 -561
-1245 -750 -291 -123 -713 -248 -1040 -309 -950 -177 -2020 -117 -3029 168
-150 43 -401 125 -465 151 l-31 13 25 5 c253 53 340 82 545 183 692 341 1126
857 1242 1477 24 129 24 409 0 532 -40 201 -107 362 -227 545 -360 547 -908
903 -1445 939 -416 27 -797 -105 -1181 -410 -149 -119 -861 -838 -1320 -1335
-505 -545 -1066 -1195 -1080 -1249 -13 -51 12 -68 203 -134 751 -261 1571
-463 2199 -540 327 -41 695 -50 929 -25 60 7 60 7 42 -14 -27 -30 -19 -72 21
-98 39 -27 370 -137 577 -193 613 -164 1139 -238 1765 -248 632 -10 1083 40
1628 182 742 194 1413 537 2002 1026 190 157 456 469 635 743 573 878 599
1836 75 2771 -75 135 -103 178 -501 770 -365 543 -596 920 -791 1291 -363 689
-539 1221 -555 1680 -10 283 35 484 154 684 39 66 43 112 11 134 -25 18 -55
20 -79 6z m-4702 -5185 c322 -22 705 -219 1007 -519 371 -368 533 -731 512
-1146 -11 -232 -62 -418 -172 -630 -91 -177 -178 -294 -334 -451 -200 -201
-382 -330 -665 -472 -228 -114 -371 -158 -615 -189 -134 -17 -582 -17 -750 0
-498 51 -1077 169 -1692 346 -242 70 -718 224 -718 232 0 25 751 875 1125
1274 248 265 872 904 985 1009 334 312 601 465 925 532 70 14 224 27 275 23
19 -2 72 -6 117 -9z"/>
<path d="M12048 12533 c-31 -34 -2137 -3229 -2149 -3260 -11 -30 6 -68 38 -82
37 -17 2499 -15 2532 2 37 19 48 63 24 96 l-20 26 -1188 3 c-963 2 -1186 5
-1182 15 3 7 469 716 1036 1576 567 860 1031 1572 1031 1581 0 10 -9 29 -21
44 -27 35 -67 34 -101 -1z"/>
<path d="M12614 12539 c-19 -21 -19 -114 -19 -4756 l0 -4735 44 -40 c131 -116
377 -195 666 -214 93 -6 102 -5 128 16 32 26 36 71 8 99 -15 15 -41 20 -132
25 -228 15 -395 60 -526 143 l-53 33 0 4708 c0 4549 -1 4709 -18 4725 -26 24
-75 21 -98 -4z"/>
<path d="M12874 9312 c-15 -9 -34 -47 -34 -65 0 -8 9 -25 19 -38 l19 -24 1748
-5 1749 -5 28 -100 c51 -186 71 -317 71 -480 0 -176 -10 -212 -79 -286 -51
-55 -56 -79 -20 -114 30 -31 53 -31 96 -2 51 34 93 97 120 178 21 66 24 91 23
229 0 162 -13 259 -60 443 -42 166 -73 256 -94 267 -22 12 -3568 14 -3586 2z"/>
</g>
<text xmlns="http://www.w3.org/2000/svg" x="800" y="1425" font-size="375px" font-weight="thin" fill="#fff0dd"> Skin kind </text>
<text xmlns="http://www.w3.org/2000/svg" x="800" y="1650" font-size="250px" font-weight="50" font-style="italic" fill="#fff0dd"> # g o a l s </text>

</svg>
