<?xml version="1.0" standalone="no"?>
<!DOCTYPE svg PUBLIC "-//W3C//DTD SVG 20010904//EN"
 "http://www.w3.org/TR/2001/REC-SVG-20010904/DTD/svg10.dtd">

<svg version="1.0" height="300px" width="300px" xmlns="http://www.w3.org/2000/svg"
 viewBox="-200 -30 2900.000000 3100.000000"
 preserveAspectRatio="xMidYMid meet">

<circle cx="1300" cy="1300" r="1300" fill="#41261D"> </circle>
<g transform="translate(0.000000,2600.000000) scale(0.100000,-0.100000)"
fill="#fff0dd" stroke="none">
<path d="M8910 23860 c-426 -41 -865 -168 -1251 -363 -395 -200 -690 -438
-916 -737 -289 -385 -438 -716 -474 -1055 -15 -140 -6 -271 32 -495 54 -316
51 -397 -22 -577 -93 -229 -129 -379 -129 -538 0 -125 15 -207 79 -437 47
-169 93 -376 106 -483 12 -93 15 -93 51 0 132 340 387 727 699 1061 88 94 116
118 168 141 870 386 1408 888 1733 1619 61 137 156 406 185 523 10 41 19 56
39 64 14 6 86 11 160 11 154 1 200 -12 310 -86 146 -97 257 -307 301 -571 30
-178 -42 -406 -241 -763 -154 -275 -346 -573 -855 -1320 -767 -1124 -1176
-1791 -1500 -2449 -861 -1746 -930 -3101 -212 -4185 460 -695 1245 -1268 2389
-1744 894 -372 1894 -598 2788 -631 85 -3 183 -8 218 -11 l62 -6 0 -1736 0
-1737 -355 -94 c-247 -66 -370 -103 -403 -123 -26 -15 -256 -216 -512 -445
-536 -482 -524 -468 -517 -609 3 -66 8 -89 30 -127 74 -126 215 -177 349 -127
54 20 66 31 760 652 l175 157 226 60 c124 34 230 61 236 61 8 0 11 -629 11
-2150 l0 -2149 -557 -3 -558 -3 -54 -30 c-173 -96 -205 -313 -66 -452 88 -87
51 -84 881 -81 l719 3 41 22 c63 34 97 66 129 125 l30 53 3 2413 c1 1326 4
2412 7 2412 20 0 3874 1033 3900 1046 43 20 102 79 128 129 31 58 31 193 0
250 -12 22 -536 646 -1165 1386 -629 740 -1149 1352 -1155 1361 -11 13 3 19
110 47 1057 281 2159 815 3022 1465 289 218 487 388 744 640 547 539 910 1066
1082 1575 16 47 29 90 29 97 0 7 -29 26 -65 42 -150 71 -289 178 -466 358
-136 140 -218 236 -480 559 -344 426 -511 612 -779 870 -859 825 -1981 1297
-3420 1439 -367 36 -464 41 -950 41 -521 0 -646 -7 -970 -55 -1308 -195 -2297
-823 -3013 -1911 -146 -222 -247 -401 -387 -684 -148 -300 -235 -502 -429
-996 -171 -436 -215 -540 -297 -700 -111 -216 -226 -336 -340 -354 l-41 -6
-110 108 c-206 204 -320 396 -384 650 -108 427 -28 945 244 1586 81 193 294
612 435 857 250 437 418 699 1081 1695 268 402 552 834 632 960 638 1004 941
1651 1051 2240 33 177 33 467 0 615 -64 283 -237 639 -437 895 -86 110 -281
296 -395 377 -244 173 -558 294 -890 343 -127 19 -450 27 -580 15z m6456
-14184 c602 -709 1091 -1293 1087 -1297 -7 -6 -3232 -869 -3248 -869 -3 0 -5
751 -5 1668 l0 1669 123 7 c220 12 698 70 877 105 25 5 51 8 58 8 7 -1 506
-582 1108 -1291z"/>
</g>
<text xmlns="http://www.w3.org/2000/svg" x="1350" y="2100" font-size="200px" font-weight="bold" fill="#fff0dd"> Skin kind </text>
<text xmlns="http://www.w3.org/2000/svg" x="1350" y="2300" font-size="180px" font-weight="100" font-style="italic" fill="#fff0dd"> # g o a l s </text>
</svg>
