<svg xmlns="http://www.w3.org/2000/svg" version="1.1" xmlns:xlink="http://www.w3.org/1999/xlink" xmlns:svgjs="http://svgjs.dev/svgjs" width="1000" height="999" viewBox="0 0 1000 999"><g transform="matrix(1,0,0,1,-0.2157434402332683,-0.21552769679306039)"><svg viewBox="0 0 343 343" data-background-color="#ffffff" preserveAspectRatio="xMidYMid meet" height="999" width="1000" xmlns="http://www.w3.org/2000/svg" xmlns:xlink="http://www.w3.org/1999/xlink"><defs></defs><g id="tight-bounds" transform="matrix(1,0,0,1,0.07400000000001228,0.07400000000001228)"><svg viewBox="0 0 342.8515585177538 342.8515585177538" height="342.8515585177538" width="342.8515585177538"><g><svg></svg></g><g><svg viewBox="0 0 342.8515585177538 342.8515585177538" height="342.8515585177538" width="342.8515585177538"><g><path d="M0 171.426c0-94.676 76.75-171.426 171.426-171.426 94.676 0 171.426 76.75 171.426 171.426 0 94.676-76.75 171.426-171.426 171.426-94.676 0-171.426-76.75-171.426-171.426zM171.426 340.246c93.237 0 168.82-75.583 168.82-168.82 0-93.237-75.583-168.82-168.82-168.82-93.237 0-168.82 75.583-168.82 168.82 0 93.237 75.583 168.82 168.82 168.82z" data-fill-palette-color="tertiary" fill="#41261d" stroke="transparent"></path><ellipse rx="164.56874808852183" ry="164.56874808852183" cx="171.4257792588769" cy="171.4257792588769" fill="#41261d" stroke="transparent" stroke-width="0" fill-opacity="1" data-fill-palette-color="tertiary"></ellipse></g><g transform="matrix(1,0,0,1,64.84655864529836,134.40989759720054)"><svg viewBox="0 0 213.15844122715708 74.03176332335272" height="74.03176332335272" width="213.15844122715708"><g><svg viewBox="0 0 213.15844122715708 74.03176332335272" height="74.03176332335272" width="213.15844122715708"><g><svg viewBox="0 0 292.70774326336215 101.65992135912246" height="74.03176332335272" width="213.15844122715708"><g transform="matrix(1,0,0,1,79.54930203620503,14.049960187838202)"><svg viewBox="0 0 213.1584412271571 73.56000098344606" height="73.56000098344606" width="213.1584412271571"><g><svg viewBox="0 0 213.1584412271571 73.56000098344606" height="73.56000098344606" width="213.1584412271571"><g><svg viewBox="0 0 213.1584412271571 39.674749569837516" height="39.674749569837516" width="213.1584412271571"><g transform="matrix(1,0,0,1,0,0)"><svg width="213.1584412271571" viewBox="2.85 -39.15 214.08 39.85" height="39.674749569837516" data-palette-color="#efe8dc"><path d="M13.7-36L13.7-36Q16.5-36 18-35.4 19.5-34.8 20.6-34.1L20.6-34.1Q21.2-33.75 21.58-33.58 21.95-33.4 22.3-33.4L22.3-33.4Q23.1-33.4 23.4-35.6L23.4-35.6 24.55-35.6Q24.5-34.65 24.43-33.4 24.35-32.15 24.33-30.08 24.3-28 24.3-24.6L24.3-24.6 23.15-24.6Q23-27.15 22.03-29.5 21.05-31.85 19.28-33.38 17.5-34.9 14.75-34.9L14.75-34.9Q12.3-34.9 10.68-33.45 9.05-32 9.05-29.55L9.05-29.55Q9.05-27.45 10.1-26.03 11.15-24.6 13.08-23.28 15-21.95 17.65-20.25L17.65-20.25Q20.1-18.65 22.05-17.07 24-15.5 25.13-13.6 26.25-11.7 26.25-8.95L26.25-8.95Q26.25-5.7 24.65-3.55 23.05-1.4 20.35-0.35 17.65 0.7 14.45 0.7L14.45 0.7Q11.5 0.7 9.78 0.1 8.05-0.5 6.8-1.15L6.8-1.15Q5.7-1.85 5.1-1.85L5.1-1.85Q4.3-1.85 4 0.35L4 0.35 2.85 0.35Q2.95-0.8 2.98-2.35 3-3.9 3.03-6.38 3.05-8.85 3.05-12.65L3.05-12.65 4.2-12.65Q4.4-9.45 5.33-6.68 6.25-3.9 8.18-2.2 10.1-0.5 13.3-0.5L13.3-0.5Q15.9-0.5 17.75-1.98 19.6-3.45 19.6-6.45L19.6-6.45Q19.6-9.5 17.5-11.55 15.4-13.6 12-15.7L12-15.7Q9.65-17.2 7.6-18.75 5.55-20.3 4.33-22.28 3.1-24.25 3.1-27.05L3.1-27.05Q3.1-30.15 4.6-32.13 6.1-34.1 8.53-35.05 10.95-36 13.7-36ZM38.9-39.15L38.9-39.15 38.9-4.65Q38.9-2.55 39.6-1.8 40.3-1.05 42-1.05L42-1.05 42 0Q41.15-0.05 39.4-0.13 37.65-0.2 35.85-0.2L35.85-0.2Q34-0.2 32.07-0.13 30.15-0.05 29.2 0L29.2 0 29.2-1.05Q31.05-1.05 31.82-1.8 32.6-2.55 32.6-4.65L32.6-4.65 32.6-33.15Q32.6-35.4 31.87-36.48 31.15-37.55 29.2-37.55L29.2-37.55 29.2-38.6Q30.8-38.45 32.3-38.45L32.3-38.45Q34.2-38.45 35.85-38.63 37.5-38.8 38.9-39.15ZM55.1-25.85L55.1-25.85 55.1-24.85Q53.6-24.55 52.2-23.73 50.8-22.9 49.45-21.45L49.45-21.45 44.5-16.3 45.05-17.4 53.85-3.65Q54.55-2.65 55.17-1.98 55.8-1.3 56.75-1.05L56.75-1.05 56.75 0Q56.1-0.05 54.7-0.13 53.3-0.2 51.9-0.2L51.9-0.2Q50.2-0.2 48.42-0.13 46.65-0.05 45.75 0L45.75 0 45.75-1.05Q46.75-1.05 47.12-1.53 47.5-2 47-2.75L47-2.75 41.8-11.5Q41.1-12.6 40.45-12.93 39.8-13.25 38.7-13.25L38.7-13.25 38.7-14.25Q39.95-14.35 40.77-14.7 41.6-15.05 42.35-15.8L42.35-15.8 46.1-19.55Q47.75-21.2 47.77-22.35 47.8-23.5 46.72-24.13 45.65-24.75 43.95-24.85L43.95-24.85 43.95-25.85Q45.3-25.8 46.95-25.73 48.6-25.65 49.75-25.65L49.75-25.65Q50.65-25.65 51.67-25.68 52.7-25.7 53.62-25.75 54.55-25.8 55.1-25.85ZM64.45-38.6L64.45-38.6Q66.25-38.6 67.4-37.6 68.55-36.6 68.55-34.95L68.55-34.95Q68.55-33.3 67.4-32.3 66.25-31.3 64.45-31.3L64.45-31.3Q62.65-31.3 61.5-32.3 60.35-33.3 60.35-34.95L60.35-34.95Q60.35-36.6 61.5-37.6 62.65-38.6 64.45-38.6ZM67.95-26.4L67.95-26.4 67.95-4.65Q67.95-2.55 68.72-1.8 69.5-1.05 71.35-1.05L71.35-1.05 71.35 0Q70.45-0.05 68.6-0.13 66.75-0.2 64.85-0.2L64.85-0.2Q63-0.2 61.1-0.13 59.2-0.05 58.25 0L58.25 0 58.25-1.05Q60.1-1.05 60.87-1.8 61.65-2.55 61.65-4.65L61.65-4.65 61.65-20.35Q61.65-22.65 60.92-23.73 60.2-24.8 58.25-24.8L58.25-24.8 58.25-25.85Q59.85-25.7 61.35-25.7L61.35-25.7Q63.2-25.7 64.87-25.88 66.55-26.05 67.95-26.4ZM91.59-26.55L91.59-26.55Q93.69-26.55 94.97-26 96.24-25.45 97.04-24.6L97.04-24.6Q97.94-23.65 98.32-22.15 98.69-20.65 98.69-18.1L98.69-18.1 98.69-4.65Q98.69-2.55 99.47-1.8 100.24-1.05 102.09-1.05L102.09-1.05 102.09 0Q101.19-0.05 99.32-0.13 97.44-0.2 95.69-0.2L95.69-0.2Q93.84-0.2 92.09-0.13 90.34-0.05 89.49 0L89.49 0 89.49-1.05Q91.09-1.05 91.74-1.8 92.39-2.55 92.39-4.65L92.39-4.65 92.39-19.8Q92.39-21.15 92.14-22.23 91.89-23.3 91.14-23.93 90.39-24.55 88.99-24.55L88.99-24.55Q86.54-24.55 84.94-22.58 83.34-20.6 83.34-17.65L83.34-17.65 83.34-4.65Q83.34-2.55 83.99-1.8 84.64-1.05 86.24-1.05L86.24-1.05 86.24 0Q85.39-0.05 83.69-0.13 81.99-0.2 80.24-0.2L80.24-0.2Q78.39-0.2 76.49-0.13 74.59-0.05 73.64 0L73.64 0 73.64-1.05Q75.49-1.05 76.27-1.8 77.04-2.55 77.04-4.65L77.04-4.65 77.04-20.4Q77.04-22.65 76.32-23.73 75.59-24.8 73.64-24.8L73.64-24.8 73.64-25.85Q75.24-25.7 76.74-25.7L76.74-25.7Q78.59-25.7 80.27-25.88 81.94-26.05 83.34-26.4L83.34-26.4 83.34-21.4Q84.59-24.25 86.79-25.4 88.99-26.55 91.59-26.55ZM124.44-39.15L124.44-39.15 124.44-4.65Q124.44-2.55 125.14-1.8 125.84-1.05 127.54-1.05L127.54-1.05 127.54 0Q126.69-0.05 124.94-0.13 123.19-0.2 121.39-0.2L121.39-0.2Q119.54-0.2 117.61-0.13 115.69-0.05 114.74 0L114.74 0 114.74-1.05Q116.59-1.05 117.36-1.8 118.14-2.55 118.14-4.65L118.14-4.65 118.14-33.15Q118.14-35.4 117.41-36.48 116.69-37.55 114.74-37.55L114.74-37.55 114.74-38.6Q116.34-38.45 117.84-38.45L117.84-38.45Q119.74-38.45 121.39-38.63 123.04-38.8 124.44-39.15ZM140.64-25.85L140.64-25.85 140.64-24.85Q139.14-24.55 137.74-23.73 136.34-22.9 134.99-21.45L134.99-21.45 130.04-16.3 130.59-17.4 139.39-3.65Q140.09-2.65 140.71-1.98 141.34-1.3 142.29-1.05L142.29-1.05 142.29 0Q141.64-0.05 140.24-0.13 138.84-0.2 137.44-0.2L137.44-0.2Q135.74-0.2 133.96-0.13 132.19-0.05 131.29 0L131.29 0 131.29-1.05Q132.29-1.05 132.66-1.53 133.04-2 132.54-2.75L132.54-2.75 127.34-11.5Q126.64-12.6 125.99-12.93 125.34-13.25 124.24-13.25L124.24-13.25 124.24-14.25Q125.49-14.35 126.31-14.7 127.14-15.05 127.89-15.8L127.89-15.8 131.64-19.55Q133.29-21.2 133.31-22.35 133.34-23.5 132.26-24.13 131.19-24.75 129.49-24.85L129.49-24.85 129.49-25.85Q130.84-25.8 132.49-25.73 134.14-25.65 135.29-25.65L135.29-25.65Q136.19-25.65 137.21-25.68 138.24-25.7 139.16-25.75 140.09-25.8 140.64-25.85ZM149.99-38.6L149.99-38.6Q151.79-38.6 152.94-37.6 154.09-36.6 154.09-34.95L154.09-34.95Q154.09-33.3 152.94-32.3 151.79-31.3 149.99-31.3L149.99-31.3Q148.19-31.3 147.04-32.3 145.89-33.3 145.89-34.95L145.89-34.95Q145.89-36.6 147.04-37.6 148.19-38.6 149.99-38.6ZM153.49-26.4L153.49-26.4 153.49-4.65Q153.49-2.55 154.26-1.8 155.04-1.05 156.89-1.05L156.89-1.05 156.89 0Q155.99-0.05 154.14-0.13 152.29-0.2 150.39-0.2L150.39-0.2Q148.54-0.2 146.64-0.13 144.74-0.05 143.79 0L143.79 0 143.79-1.05Q145.64-1.05 146.41-1.8 147.19-2.55 147.19-4.65L147.19-4.65 147.19-20.35Q147.19-22.65 146.46-23.73 145.74-24.8 143.79-24.8L143.79-24.8 143.79-25.85Q145.39-25.7 146.89-25.7L146.89-25.7Q148.74-25.7 150.41-25.88 152.09-26.05 153.49-26.4ZM177.13-26.55L177.13-26.55Q179.23-26.55 180.51-26 181.78-25.45 182.58-24.6L182.58-24.6Q183.48-23.65 183.86-22.15 184.23-20.65 184.23-18.1L184.23-18.1 184.23-4.65Q184.23-2.55 185.01-1.8 185.78-1.05 187.63-1.05L187.63-1.05 187.63 0Q186.73-0.05 184.86-0.13 182.98-0.2 181.23-0.2L181.23-0.2Q179.38-0.2 177.63-0.13 175.88-0.05 175.03 0L175.03 0 175.03-1.05Q176.63-1.05 177.28-1.8 177.93-2.55 177.93-4.65L177.93-4.65 177.93-19.8Q177.93-21.15 177.68-22.23 177.43-23.3 176.68-23.93 175.93-24.55 174.53-24.55L174.53-24.55Q172.08-24.55 170.48-22.58 168.88-20.6 168.88-17.65L168.88-17.65 168.88-4.65Q168.88-2.55 169.53-1.8 170.18-1.05 171.78-1.05L171.78-1.05 171.78 0Q170.93-0.05 169.23-0.13 167.53-0.2 165.78-0.2L165.78-0.2Q163.93-0.2 162.03-0.13 160.13-0.05 159.18 0L159.18 0 159.18-1.05Q161.03-1.05 161.81-1.8 162.58-2.55 162.58-4.65L162.58-4.65 162.58-20.4Q162.58-22.65 161.86-23.73 161.13-24.8 159.18-24.8L159.18-24.8 159.18-25.85Q160.78-25.7 162.28-25.7L162.28-25.7Q164.13-25.7 165.81-25.88 167.48-26.05 168.88-26.4L168.88-26.4 168.88-21.4Q170.13-24.25 172.33-25.4 174.53-26.55 177.13-26.55ZM213.53-39.15L213.53-39.15 213.53-5.45Q213.53-3.2 214.28-2.13 215.03-1.05 216.93-1.05L216.93-1.05 216.93 0Q215.38-0.15 213.83-0.15L213.83-0.15Q211.98-0.15 210.33 0 208.68 0.15 207.23 0.55L207.23 0.55 207.23-33.15Q207.23-35.4 206.51-36.48 205.78-37.55 203.83-37.55L203.83-37.55 203.83-38.6Q205.43-38.45 206.93-38.45L206.93-38.45Q208.83-38.45 210.48-38.63 212.13-38.8 213.53-39.15ZM201.58-26.55L201.58-26.55Q203.78-26.55 205.53-25.7 207.28-24.85 208.13-22.85L208.13-22.85 207.53-22.35Q206.83-23.8 205.63-24.5 204.43-25.2 202.93-25.2L202.93-25.2Q200.23-25.2 198.61-22.18 196.98-19.15 196.98-12.9L196.98-12.9Q196.98-8.7 197.63-6.13 198.28-3.55 199.51-2.4 200.73-1.25 202.43-1.25L202.43-1.25Q204.23-1.25 205.68-2.73 207.13-4.2 207.38-6.95L207.38-6.95 207.73-5.55Q207.08-2.5 205.28-0.9 203.48 0.7 200.53 0.7L200.53 0.7Q197.53 0.7 195.21-0.78 192.88-2.25 191.61-5.28 190.33-8.3 190.33-12.95L190.33-12.95Q190.33-17.5 191.83-20.53 193.33-23.55 195.88-25.05 198.43-26.55 201.58-26.55Z" opacity="1" transform="matrix(1,0,0,1,0,0)" fill="#efe8dc" class="undefined-text-0" data-fill-palette-color="quaternary" id="text-0"></path></svg></g></svg></g><g transform="matrix(1,0,0,1,0,49.04100574928648)"><svg viewBox="0 0 213.1584412271571 24.518995234159586" height="24.518995234159586" width="213.1584412271571"><g transform="matrix(1,0,0,1,0,0)"><svg width="213.1584412271571" viewBox="1.4 -39.75 427.73 49.199999999999996" height="24.518995234159586" data-palette-color="#efe8dc"><path d="M6.15-22.7L31.2-22.7 30.8-21.7 5.75-21.7 6.15-22.7ZM1.85-13.35L26.9-13.35 26.4-12.35 1.4-12.35 1.85-13.35ZM27.5-30.1L15.9-5.05 14.7-5.05 26.3-30.1 27.5-30.1ZM18.15-30.1L6.55-5.05 5.35-5.05 16.95-30.1 18.15-30.1ZM98.69-11.35L98.69-11.35 101.34-11.65Q98.24-10.45 96.61-9.55 94.99-8.65 94.99-7.9L94.99-7.9Q94.99-7.5 95.49-7.18 95.99-6.85 96.99-6.55L96.99-6.55 101.34-5Q102.74-4.5 104.04-3.8 105.34-3.1 106.19-2 107.04-0.9 107.04 0.75L107.04 0.75Q107.04 2.8 105.71 4.42 104.39 6.05 102.14 7.18 99.89 8.3 97.16 8.88 94.44 9.45 91.59 9.45L91.59 9.45Q89.09 9.45 86.94 8.97 84.79 8.5 83.46 7.65 82.14 6.8 82.14 5.65L82.14 5.65Q82.14 4.65 83.11 3.9 84.09 3.15 85.61 2.65 87.14 2.15 88.81 1.9 90.49 1.65 91.99 1.6L91.99 1.6 92.09 2.35Q90.44 3.25 89.76 4.2 89.09 5.15 89.09 6.05L89.09 6.05Q89.09 7.3 90.04 7.95 90.99 8.6 92.69 8.6L92.69 8.6Q94.44 8.6 96.31 7.98 98.19 7.35 99.51 6.23 100.84 5.1 100.84 3.7L100.84 3.7Q100.84 2.7 100.09 2.33 99.34 1.95 98.09 1.6L98.09 1.6 91.14-0.5Q89.89-0.9 88.96-1.73 88.04-2.55 88.04-3.85L88.04-3.85Q88.04-5.35 89.36-6.53 90.69-7.7 93.11-8.88 95.54-10.05 98.69-11.35ZM100.69-25.65L100.69-25.65Q99.79-25.65 99.01-24.68 98.24-23.7 97.69-22.08 97.14-20.45 96.84-18.5 96.54-16.55 96.54-14.6L96.54-14.6Q96.54-12.95 96.86-12.33 97.19-11.7 97.84-11.7L97.84-11.7Q98.84-11.7 99.61-12.68 100.39-13.65 100.94-15.25 101.49-16.85 101.74-18.8 101.99-20.75 101.99-22.7L101.99-22.7Q101.99-23.85 101.76-24.75 101.54-25.65 100.69-25.65ZM101.79-26.55L101.79-26.55Q105.19-26.55 107.41-25.23 109.64-23.9 109.64-20.9L109.64-20.9Q109.64-18.5 108.09-16.15 106.54-13.8 103.66-12.3 100.79-10.8 96.89-10.8L96.89-10.8Q93.54-10.8 91.26-12.15 88.99-13.5 88.99-16.45L88.99-16.45Q88.99-18.15 89.84-19.93 90.69-21.7 92.31-23.23 93.94-24.75 96.31-25.65 98.69-26.55 101.79-26.55ZM105.84-23.9L105.84-23.9 104.84-24.25Q105.59-26.3 107.29-27.58 108.99-28.85 110.94-28.85L110.94-28.85Q112.59-28.85 113.44-27.95 114.29-27.05 114.29-25.6L114.29-25.6Q114.29-24.15 113.54-23.4 112.79-22.65 111.89-22.65L111.89-22.65Q111.09-22.65 110.36-23.28 109.64-23.9 109.44-25.15 109.24-26.4 110.04-28.4L110.04-28.4 110.34-28.05Q108.54-27.4 107.54-26.45 106.54-25.5 105.84-23.9ZM184.67-25.6L184.67-25.6Q183.67-25.6 182.45-24.2 181.22-22.8 180.02-20.45 178.82-18.1 177.82-15.2 176.82-12.3 176.22-9.25 175.62-6.2 175.62-3.4L175.62-3.4Q175.62-1.7 175.95-1 176.27-0.3 176.97-0.3L176.97-0.3Q177.92-0.3 179.12-1.63 180.32-2.95 181.5-5.23 182.67-7.5 183.67-10.38 184.67-13.25 185.3-16.35 185.92-19.45 185.92-22.4L185.92-22.4Q185.92-24.4 185.57-25 185.22-25.6 184.67-25.6ZM168.12-7.65L168.12-7.65Q168.12-10.6 169.12-13.88 170.12-17.15 172.22-20.05 174.32-22.95 177.47-24.78 180.62-26.6 184.92-26.6L184.92-26.6Q189.02-26.6 191.22-24.45 193.42-22.3 193.42-18.25L193.42-18.25Q193.42-15.3 192.42-12.03 191.42-8.75 189.32-5.85 187.22-2.95 184.07-1.13 180.92 0.7 176.62 0.7L176.62 0.7Q172.52 0.7 170.32-1.45 168.12-3.6 168.12-7.65ZM260.66-2.35L260.66-2.35Q261.26-2.35 262.01-2.98 262.76-3.6 263.56-4.9 264.36-6.2 265.21-8.25 266.06-10.3 266.86-13.2L266.86-13.2 265.61-7.8Q264.06-3 261.83-1.15 259.61 0.7 256.86 0.7L256.86 0.7Q253.86 0.7 252.41-0.95 250.96-2.6 250.96-5.5L250.96-5.5Q250.96-8.3 251.91-11.28 252.86-14.25 254.48-16.98 256.11-19.7 258.13-21.88 260.16-24.05 262.38-25.33 264.61-26.6 266.76-26.6L266.76-26.6Q268.41-26.6 269.28-25.45 270.16-24.3 269.86-21.65L269.86-21.65 269.31-21.35Q269.56-22.9 269.23-23.68 268.91-24.45 268.11-24.45L268.11-24.45Q266.91-24.45 265.41-22.75 263.91-21.05 262.56-18.23 261.21-15.4 260.28-12 259.36-8.6 259.36-5.25L259.36-5.25Q259.36-3.7 259.66-3.03 259.96-2.35 260.66-2.35ZM265.26-7.6L270.56-25.85Q273.01-25.9 274.93-26.08 276.86-26.25 278.71-26.6L278.71-26.6 272.06-4.25Q271.86-3.55 271.83-3.03 271.81-2.5 272.03-2.23 272.26-1.95 272.71-1.95L272.71-1.95Q273.26-1.95 274.01-2.6 274.76-3.25 275.61-5.5L275.61-5.5 276.56-8.1 277.51-8.1 276.26-4.45Q275.16-1.35 273.21-0.33 271.26 0.7 269.36 0.7L269.36 0.7Q266.56 0.7 265.36-0.95L265.36-0.95Q264.61-2.05 264.61-3.7 264.61-5.35 265.26-7.6L265.26-7.6ZM354.29-39.75L343.79-4.25Q343.39-3 343.72-2.48 344.04-1.95 344.59-1.95L344.59-1.95Q344.99-1.95 345.77-2.55 346.54-3.15 347.39-5.5L347.39-5.5 348.34-8.1 349.29-8.1 348.04-4.45Q347.29-2.35 346.14-1.25 344.99-0.15 343.69 0.28 342.39 0.7 341.14 0.7L341.14 0.7Q339.04 0.7 337.79-0.3 336.54-1.3 336.32-3.15 336.09-5 336.84-7.6L336.84-7.6 344.59-33.35Q345.09-35.05 344.49-35.85 343.89-36.65 341.44-36.65L341.44-36.65 341.79-37.7Q345.64-37.75 348.59-38.27 351.54-38.8 354.29-39.75L354.29-39.75ZM411.68-0.7L411.68-0.7Q412.08-0.5 412.5-0.43 412.93-0.35 413.53-0.35L413.53-0.35Q415.23-0.35 416.33-1.43 417.43-2.5 417.43-4.4L417.43-4.4Q417.43-6.1 416.68-7.88 415.93-9.65 414.58-11.7L414.58-11.7Q413.38-13.55 412.45-15.28 411.53-17 411.53-19.15L411.53-19.15Q411.53-22.35 413.98-24.48 416.43-26.6 421.03-26.6L421.03-26.6Q423.03-26.6 424.88-26.13 426.73-25.65 427.93-24.5 429.13-23.35 429.13-21.15L429.13-21.15Q429.13-19.75 428.33-18.4 427.53-17.05 425.83-17.05L425.83-17.05Q424.48-17.05 423.68-18.1 422.88-19.15 422.88-20.85L422.88-20.85Q422.88-22.3 423.38-23.45 423.88-24.6 424.43-25.25L424.43-25.25Q423.93-25.55 422.93-25.55L422.93-25.55Q421.18-25.55 420.23-24.5 419.28-23.45 419.23-21.45L419.23-21.45Q419.18-19.75 420.13-18.2 421.08-16.65 422.18-14.8L422.18-14.8Q423.78-12.15 424.48-10.38 425.18-8.6 425.18-6.85L425.18-6.85Q425.18-4.75 424.05-3.05 422.93-1.35 420.75-0.33 418.58 0.7 415.48 0.7L415.48 0.7Q413.23 0.7 411.23 0.15 409.23-0.4 407.98-1.75 406.73-3.1 406.73-5.4L406.73-5.4Q406.73-7.05 407.55-8.22 408.38-9.4 409.83-9.4L409.83-9.4Q411.23-9.4 412.05-8.25 412.88-7.1 412.88-5.25L412.88-5.25Q412.88-3.85 412.43-2.63 411.98-1.4 411.68-0.7Z" opacity="1" transform="matrix(1,0,0,1,0,0)" fill="#efe8dc" class="undefined-text-1" data-fill-palette-color="quaternary" id="text-1"></path></svg></g></svg></g></svg></g></svg></g><g><svg viewBox="0 0 70.18304585675607 101.65992135912246" height="101.65992135912246" width="70.18304585675607"><g><svg xmlns="http://www.w3.org/2000/svg" xmlns:xlink="http://www.w3.org/1999/xlink" version="1.1" x="0" y="0" viewBox="25.000032266337158 6.99954129761895 54.09754600031073 78.3601253689917" enable-background="new 0 0 100 100" xml:space="preserve" height="101.65992135912246" width="70.18304585675607" class="icon-icon-0" data-fill-palette-color="quaternary" id="icon-0"><g fill="#efe8dc" data-fill-palette-color="quaternary"><path fill="none" d="M35.382 11.271c0.354 0 0.644-0.288 0.644-0.644s-0.289-0.643-0.644-0.643c-0.08 0-0.156 0.016-0.228 0.043-0.088 0.033-0.166 0.083-0.231 0.148-0.114 0.116-0.185 0.275-0.185 0.451C34.738 10.982 35.026 11.271 35.382 11.271z"></path><path fill="none" d="M25.723 22.875c0.016 0.041 0.03 0.081 0.047 0.121 1.025-0.234 3.056-0.563 4.215 0.154 0.002-0.025 0.005-0.05 0.007-0.075C29.616 22.659 28.38 21.682 25.723 22.875z"></path><path fill="none" d="M35.962 9.826c-0.058 0-0.113 0.003-0.169 0.008 0.485 0.153 0.836 0.606 0.836 1.142 0 0.661-0.535 1.196-1.195 1.196-0.57 0-1.047-0.399-1.167-0.934-0.019 0.102-0.029 0.205-0.029 0.312 0 0.952 0.771 1.724 1.725 1.724 0.952 0 1.724-0.771 1.724-1.724C37.686 10.598 36.914 9.826 35.962 9.826z"></path><path fill="none" d="M52.178 30.24c0 0 0.828 9.838 16.48 12.507 0 0 5.379 0.549 6.086-0.628C74.744 42.119 62.936 25.326 52.178 30.24z"></path><path d="M33.658 17.533c-0.968-3.198-4.716-3.997-5.827-4.165-0.051 0.11-0.076 0.171-0.076 0.171-3.285 2.945-3.168 6.405-2.032 9.336 2.657-1.193 3.894-0.216 4.269 0.2 0.097-1.405 0.65-2.226 0.65-2.226C31.421 19.273 32.501 18.226 33.658 17.533z" fill="#efe8dc" data-fill-palette-color="quaternary"></path><path d="M25.77 22.996c1.43 3.582 4.352 6.343 4.352 6.343 1.247-0.707 0-4.479 0-4.479-0.134-0.637-0.164-1.209-0.137-1.709C28.825 22.433 26.795 22.762 25.77 22.996z" fill="#efe8dc" data-fill-palette-color="quaternary"></path><path d="M66.758 31.107c-11.283-11.79-25.598 5.07-25.598 5.07-1.35-0.621-3.008-1.721-3.681-3.094-2.524-5.156 4.625-9.531 5.897-13.883 1.401-4.796-0.318-9.313-4.71-11.439-6.331-3.062-10.076 4-10.787 5.503 5.596-0.899 5.918 2.985 5.884 4.206 3.046-1.759 6.578-1.102 6.579-1.102 0.999 0.186 0.722 1.961 0.531 2.533-0.434 1.303-1.321 2.501-2.15 3.576-0.894 1.159-1.975 2.142-2.896 3.273-1.059 1.301-1.705 2.81-2.282 4.369-0.466 1.257-0.717 2.6-0.472 3.933 0.669 3.642 4.407 6.183 7.724 7.187 1.499 0.455 3.063 0.705 4.621 0.852 0.473 0.045 1.409-0.096 1.848 0.099 1.214 0.541 2.407 0.976 3.568 1.32 0.088 5.034 0.646 38.312-0.012 38.803 0 0-7.344 0.973-8.67 2.3 0 0-2.918 1.68 11.761 0 0 0-2.852-35.886-1.582-40.7 3.65 0.877 6.885 0.909 9.24 0.712 2.836 1.813 7.533 4.961 7.285 5.766 0 0-16.094 6.986-15.562 9.992 0 0 0.797 10.258 2.83 10.523 0 0 2.121-0.354 1.148-2.918 0 0-2.564-6.986-1.768-6.897 0 0 4.17-4.774 13.361-8.047 0 0 3.086-1.326 3.174-2.829 0 0-4.037-3.781-7.857-5.941 0.871-0.166 1.357-0.314 1.357-0.314 7.428 2.712 12.732 1.533 12.732 1.533C82.873 45.492 66.758 31.107 66.758 31.107zM34.923 10.176c0.065-0.065 0.144-0.115 0.231-0.148 0.071-0.027 0.147-0.043 0.228-0.043 0.354 0 0.644 0.287 0.644 0.643s-0.289 0.644-0.644 0.644c-0.355 0-0.644-0.288-0.644-0.644C34.738 10.451 34.809 10.292 34.923 10.176zM35.962 13.274c-0.953 0-1.725-0.771-1.725-1.724 0-0.107 0.011-0.211 0.029-0.312 0.12 0.534 0.597 0.934 1.167 0.934 0.66 0 1.195-0.535 1.195-1.196 0-0.535-0.351-0.988-0.836-1.142 0.056-0.005 0.111-0.008 0.169-0.008 0.952 0 1.724 0.771 1.724 1.725C37.686 12.503 36.914 13.274 35.962 13.274zM68.658 42.747c-15.652-2.669-16.48-12.507-16.48-12.507 10.758-4.914 22.566 11.879 22.566 11.879C74.037 43.296 68.658 42.747 68.658 42.747z" fill="#efe8dc" data-fill-palette-color="quaternary"></path><path fill="#efe8dc" d="M25.139 23.159c0 0 0.245-0.075 0.631-0.163-0.017-0.04-0.031-0.08-0.047-0.121C25.534 22.959 25.342 23.053 25.139 23.159z" data-fill-palette-color="quaternary"></path><path fill="#efe8dc" d="M30.12 23.24c0 0-0.041-0.066-0.129-0.165-0.002 0.025-0.005 0.05-0.007 0.075C30.031 23.179 30.076 23.209 30.12 23.24z" data-fill-palette-color="quaternary"></path></g></svg><g></g></g></svg></g></svg></g></svg></g></svg></g></svg></g></svg><rect width="342.8515585177538" height="342.8515585177538" fill="none" stroke="none" visibility="hidden"></rect></g></svg></g></svg>