<svg width="155" height="57" viewBox="0 0 155 57" fill="none" xmlns="http://www.w3.org/2000/svg">
<rect width="155" height="57" fill="#F5F5F5"/>
<rect width="155" height="57" fill="#FCFBF6"/>
<path d="M14.376 18.928C15.6987 18.928 16.7227 19.0667 17.448 19.344C18.1733 19.6 18.792 19.8773 19.304 20.176C19.56 20.3253 19.7627 20.4427 19.912 20.528C20.0827 20.592 20.2427 20.624 20.392 20.624C20.6053 20.624 20.7547 20.5067 20.84 20.272C20.9467 20.0373 21.032 19.6853 21.096 19.216H21.832C21.8107 19.6427 21.7787 20.144 21.736 20.72C21.7147 21.296 21.6933 22.064 21.672 23.024C21.672 23.9627 21.672 25.2107 21.672 26.768H20.936C20.8507 25.616 20.584 24.5067 20.136 23.44C19.688 22.3733 19.0693 21.488 18.28 20.784C17.512 20.08 16.5627 19.728 15.432 19.728C14.4507 19.728 13.64 20.0053 13 20.56C12.36 21.0933 12.04 21.8613 12.04 22.864C12.04 23.6747 12.2427 24.3787 12.648 24.976C13.0533 25.552 13.6613 26.1387 14.472 26.736C15.304 27.3333 16.3493 28.0693 17.608 28.944C18.6107 29.6053 19.5067 30.2667 20.296 30.928C21.0853 31.5893 21.7147 32.336 22.184 33.168C22.6747 34 22.92 35.0027 22.92 36.176C22.92 37.584 22.536 38.7573 21.768 39.696C21 40.6133 19.9867 41.3067 18.728 41.776C17.4693 42.224 16.0933 42.448 14.6 42.448C13.2133 42.448 12.104 42.32 11.272 42.064C10.4613 41.808 9.768 41.5413 9.192 41.264C8.72267 40.9653 8.36 40.816 8.104 40.816C7.89067 40.816 7.73067 40.9333 7.624 41.168C7.53867 41.4027 7.464 41.7547 7.4 42.224H6.664C6.70667 41.6907 6.728 41.072 6.728 40.368C6.74933 39.6427 6.76 38.7147 6.76 37.584C6.78133 36.4533 6.792 35.0133 6.792 33.264H7.528C7.61333 34.7147 7.848 36.0693 8.232 37.328C8.63733 38.5867 9.24533 39.6107 10.056 40.4C10.888 41.168 11.9867 41.552 13.352 41.552C14.12 41.552 14.792 41.424 15.368 41.168C15.944 40.912 16.4027 40.5387 16.744 40.048C17.0853 39.536 17.256 38.9173 17.256 38.192C17.256 37.296 17.0533 36.5173 16.648 35.856C16.2427 35.1947 15.688 34.576 14.984 34C14.28 33.4027 13.4587 32.8053 12.52 32.208C11.5173 31.5467 10.5787 30.8747 9.704 30.192C8.82933 29.5093 8.12533 28.752 7.592 27.92C7.08 27.0667 6.824 26.0427 6.824 24.848C6.824 23.4827 7.176 22.3627 7.88 21.488C8.584 20.6133 9.512 19.9733 10.664 19.568C11.8373 19.1413 13.0747 18.928 14.376 18.928ZM31.5863 16.976V39.024C31.5863 39.92 31.7249 40.528 32.0023 40.848C32.2796 41.168 32.7596 41.328 33.4423 41.328V42C33.0369 41.9787 32.4289 41.9573 31.6183 41.936C30.8076 41.8933 29.9756 41.872 29.1223 41.872C28.2476 41.872 27.3623 41.8933 26.4663 41.936C25.5916 41.9573 24.9303 41.9787 24.4823 42V41.328C25.1863 41.328 25.6769 41.168 25.9543 40.848C26.2529 40.528 26.4023 39.92 26.4023 39.024V20.816C26.4023 19.856 26.2636 19.152 25.9863 18.704C25.7303 18.2347 25.2289 18 24.4823 18V17.328C25.1649 17.392 25.8263 17.424 26.4663 17.424C27.4476 17.424 28.3649 17.392 29.2183 17.328C30.0716 17.2427 30.8609 17.1253 31.5863 16.976ZM42.1463 25.424V26.064C41.4209 26.2347 40.6956 26.5653 39.9703 27.056C39.2449 27.5253 38.5089 28.1333 37.7623 28.88L35.9703 30.704L36.2263 30.192L41.5382 39.664C41.7516 40.0267 41.9649 40.3573 42.1783 40.656C42.4129 40.9547 42.6903 41.1787 43.0103 41.328V42C42.6903 41.9787 42.1783 41.9573 41.4743 41.936C40.7916 41.8933 40.0983 41.872 39.3943 41.872C38.5836 41.872 37.7623 41.8933 36.9303 41.936C36.1196 41.9573 35.5009 41.9787 35.0743 42V41.328C35.5009 41.328 35.7889 41.232 35.9383 41.04C36.0876 40.848 36.0663 40.5813 35.8743 40.24L32.8983 34.416C32.7063 34.0533 32.4929 33.8187 32.2583 33.712C32.0449 33.6053 31.7783 33.552 31.4583 33.552V32.944C31.8209 32.9227 32.1409 32.8693 32.4183 32.784C32.7169 32.6987 32.9943 32.5387 33.2503 32.304L35.6823 29.968C36.4289 29.264 36.8023 28.6347 36.8023 28.08C36.8236 27.504 36.5889 27.0347 36.0983 26.672C35.6289 26.3093 35.0209 26.1067 34.2743 26.064V25.424C34.8716 25.4453 35.5223 25.4667 36.2263 25.488C36.9516 25.5093 37.5703 25.52 38.0823 25.52C38.5089 25.52 38.9783 25.52 39.4903 25.52C40.0236 25.4987 40.5249 25.488 40.9943 25.488C41.4849 25.4667 41.8689 25.4453 42.1463 25.424ZM48.024 17.072C49.0267 17.072 49.8053 17.296 50.36 17.744C50.936 18.192 51.224 18.8427 51.224 19.696C51.224 20.5493 50.936 21.2 50.36 21.648C49.8053 22.096 49.0267 22.32 48.024 22.32C47.0213 22.32 46.232 22.096 45.656 21.648C45.1013 21.2 44.824 20.5493 44.824 19.696C44.824 18.8427 45.1013 18.192 45.656 17.744C46.232 17.296 47.0213 17.072 48.024 17.072ZM50.84 25.072V39.024C50.84 39.92 50.9787 40.528 51.256 40.848C51.5547 41.168 52.056 41.328 52.76 41.328V42C52.3333 41.9787 51.704 41.9573 50.872 41.936C50.04 41.8933 49.1973 41.872 48.344 41.872C47.4907 41.872 46.616 41.8933 45.72 41.936C44.8453 41.9573 44.184 41.9787 43.736 42V41.328C44.44 41.328 44.9307 41.168 45.208 40.848C45.5067 40.528 45.656 39.92 45.656 39.024V28.912C45.656 27.952 45.5173 27.248 45.24 26.8C44.9627 26.3307 44.4613 26.096 43.736 26.096V25.424C44.4187 25.488 45.08 25.52 45.72 25.52C46.68 25.52 47.5867 25.488 48.44 25.424C49.3147 25.3387 50.1147 25.2213 50.84 25.072ZM66.3358 24.976C67.2744 24.976 68.0211 25.0933 68.5758 25.328C69.1518 25.5627 69.5891 25.8613 69.8878 26.224C70.2291 26.6293 70.4744 27.152 70.6238 27.792C70.7944 28.432 70.8798 29.296 70.8798 30.384V39.024C70.8798 39.92 71.0184 40.528 71.2958 40.848C71.5944 41.168 72.0958 41.328 72.7998 41.328V42C72.3731 41.9787 71.7331 41.9573 70.8798 41.936C70.0478 41.8933 69.2371 41.872 68.4478 41.872C67.5731 41.872 66.7304 41.8933 65.9198 41.936C65.1091 41.9573 64.5011 41.9787 64.0958 42V41.328C64.6931 41.328 65.1091 41.168 65.3438 40.848C65.5784 40.528 65.6958 39.92 65.6958 39.024V28.848C65.6958 28.3573 65.6424 27.9413 65.5358 27.6C65.4291 27.2373 65.2478 26.9707 64.9918 26.8C64.7358 26.608 64.3731 26.512 63.9038 26.512C63.4131 26.512 62.9544 26.64 62.5278 26.896C62.1224 27.152 61.7918 27.5147 61.5358 27.984C61.3011 28.432 61.1838 28.944 61.1838 29.52V39.024C61.1838 39.92 61.3011 40.528 61.5358 40.848C61.7704 41.168 62.1864 41.328 62.7838 41.328V42C62.3784 41.9787 61.7918 41.9573 61.0238 41.936C60.2558 41.8933 59.4771 41.872 58.6878 41.872C57.8131 41.872 56.9384 41.8933 56.0638 41.936C55.1891 41.9573 54.5278 41.9787 54.0798 42V41.328C54.7838 41.328 55.2744 41.168 55.5518 40.848C55.8504 40.528 55.9998 39.92 55.9998 39.024V28.912C55.9998 27.952 55.8611 27.248 55.5838 26.8C55.3064 26.3307 54.8051 26.096 54.0798 26.096V25.424C54.7624 25.488 55.4238 25.52 56.0638 25.52C57.0238 25.52 57.9304 25.488 58.7838 25.424C59.6584 25.3387 60.4584 25.2213 61.1838 25.072V27.664C61.6958 26.6827 62.3891 25.9893 63.2638 25.584C64.1598 25.1787 65.1838 24.976 66.3358 24.976ZM87.93 16.976V39.024C87.93 39.92 88.0687 40.528 88.346 40.848C88.6233 41.168 89.1033 41.328 89.786 41.328V42C89.3807 41.9787 88.7727 41.9573 87.962 41.936C87.1513 41.8933 86.3193 41.872 85.466 41.872C84.5913 41.872 83.706 41.8933 82.81 41.936C81.9353 41.9573 81.274 41.9787 80.826 42V41.328C81.53 41.328 82.0207 41.168 82.298 40.848C82.5967 40.528 82.746 39.92 82.746 39.024V20.816C82.746 19.856 82.6073 19.152 82.33 18.704C82.074 18.2347 81.5727 18 80.826 18V17.328C81.5087 17.392 82.17 17.424 82.81 17.424C83.7913 17.424 84.7087 17.392 85.562 17.328C86.4153 17.2427 87.2047 17.1253 87.93 16.976ZM98.49 25.424V26.064C97.7647 26.2347 97.0393 26.5653 96.314 27.056C95.5887 27.5253 94.8527 28.1333 94.106 28.88L92.314 30.704L92.57 30.192L97.882 39.664C98.0953 40.0267 98.3087 40.3573 98.522 40.656C98.7567 40.9547 99.034 41.1787 99.354 41.328V42C99.034 41.9787 98.522 41.9573 97.818 41.936C97.1353 41.8933 96.442 41.872 95.738 41.872C94.9273 41.872 94.106 41.8933 93.274 41.936C92.4633 41.9573 91.8447 41.9787 91.418 42V41.328C91.8447 41.328 92.1327 41.232 92.282 41.04C92.4313 40.848 92.41 40.5813 92.218 40.24L89.242 34.416C89.05 34.0533 88.8367 33.8187 88.602 33.712C88.3887 33.6053 88.122 33.552 87.802 33.552V32.944C88.1647 32.9227 88.4847 32.8693 88.762 32.784C89.0607 32.6987 89.338 32.5387 89.594 32.304L92.026 29.968C92.7727 29.264 93.146 28.6347 93.146 28.08C93.1673 27.504 92.9327 27.0347 92.442 26.672C91.9727 26.3093 91.3647 26.1067 90.618 26.064V25.424C91.2153 25.4453 91.866 25.4667 92.57 25.488C93.2953 25.5093 93.914 25.52 94.426 25.52C94.8527 25.52 95.322 25.52 95.834 25.52C96.3673 25.4987 96.8687 25.488 97.338 25.488C97.8287 25.4667 98.2127 25.4453 98.49 25.424ZM104.368 17.072C105.37 17.072 106.149 17.296 106.704 17.744C107.28 18.192 107.568 18.8427 107.568 19.696C107.568 20.5493 107.28 21.2 106.704 21.648C106.149 22.096 105.37 22.32 104.368 22.32C103.365 22.32 102.576 22.096 102 21.648C101.445 21.2 101.168 20.5493 101.168 19.696C101.168 18.8427 101.445 18.192 102 17.744C102.576 17.296 103.365 17.072 104.368 17.072ZM107.184 25.072V39.024C107.184 39.92 107.322 40.528 107.6 40.848C107.898 41.168 108.4 41.328 109.104 41.328V42C108.677 41.9787 108.048 41.9573 107.216 41.936C106.384 41.8933 105.541 41.872 104.688 41.872C103.834 41.872 102.96 41.8933 102.064 41.936C101.189 41.9573 100.528 41.9787 100.08 42V41.328C100.784 41.328 101.274 41.168 101.552 40.848C101.85 40.528 102 39.92 102 39.024V28.912C102 27.952 101.861 27.248 101.584 26.8C101.306 26.3307 100.805 26.096 100.08 26.096V25.424C100.762 25.488 101.424 25.52 102.064 25.52C103.024 25.52 103.93 25.488 104.784 25.424C105.658 25.3387 106.458 25.2213 107.184 25.072ZM122.68 24.976C123.618 24.976 124.365 25.0933 124.92 25.328C125.496 25.5627 125.933 25.8613 126.232 26.224C126.573 26.6293 126.818 27.152 126.968 27.792C127.138 28.432 127.224 29.296 127.224 30.384V39.024C127.224 39.92 127.362 40.528 127.64 40.848C127.938 41.168 128.44 41.328 129.144 41.328V42C128.717 41.9787 128.077 41.9573 127.224 41.936C126.392 41.8933 125.581 41.872 124.792 41.872C123.917 41.872 123.074 41.8933 122.264 41.936C121.453 41.9573 120.845 41.9787 120.44 42V41.328C121.037 41.328 121.453 41.168 121.688 40.848C121.922 40.528 122.04 39.92 122.04 39.024V28.848C122.04 28.3573 121.986 27.9413 121.88 27.6C121.773 27.2373 121.592 26.9707 121.336 26.8C121.08 26.608 120.717 26.512 120.248 26.512C119.757 26.512 119.298 26.64 118.872 26.896C118.466 27.152 118.136 27.5147 117.88 27.984C117.645 28.432 117.528 28.944 117.528 29.52V39.024C117.528 39.92 117.645 40.528 117.88 40.848C118.114 41.168 118.53 41.328 119.128 41.328V42C118.722 41.9787 118.136 41.9573 117.368 41.936C116.6 41.8933 115.821 41.872 115.032 41.872C114.157 41.872 113.282 41.8933 112.408 41.936C111.533 41.9573 110.872 41.9787 110.424 42V41.328C111.128 41.328 111.618 41.168 111.896 40.848C112.194 40.528 112.344 39.92 112.344 39.024V28.912C112.344 27.952 112.205 27.248 111.928 26.8C111.65 26.3307 111.149 26.096 110.424 26.096V25.424C111.106 25.488 111.768 25.52 112.408 25.52C113.368 25.52 114.274 25.488 115.128 25.424C116.002 25.3387 116.802 25.2213 117.528 25.072V27.664C118.04 26.6827 118.733 25.9893 119.608 25.584C120.504 25.1787 121.528 24.976 122.68 24.976ZM146.332 16.976V38.48C146.332 39.44 146.471 40.1547 146.748 40.624C147.047 41.072 147.548 41.296 148.252 41.296V41.968C147.591 41.904 146.929 41.872 146.268 41.872C145.308 41.872 144.401 41.904 143.548 41.968C142.695 42.032 141.895 42.1493 141.148 42.32V20.816C141.148 19.856 141.009 19.152 140.732 18.704C140.476 18.2347 139.975 18 139.228 18V17.328C139.911 17.392 140.572 17.424 141.212 17.424C142.193 17.424 143.111 17.392 143.964 17.328C144.817 17.2427 145.607 17.1253 146.332 16.976ZM137.724 24.976C138.663 24.976 139.473 25.1147 140.156 25.392C140.839 25.648 141.404 26.0853 141.852 26.704L141.468 27.024C141.191 26.6613 140.849 26.3947 140.444 26.224C140.06 26.0533 139.655 25.968 139.228 25.968C138.204 25.968 137.404 26.608 136.828 27.888C136.273 29.1467 135.996 31.088 135.996 33.712C135.996 35.5467 136.103 36.9973 136.316 38.064C136.551 39.1093 136.86 39.8453 137.244 40.272C137.649 40.6987 138.097 40.912 138.588 40.912C139.249 40.912 139.836 40.6667 140.348 40.176C140.881 39.664 141.159 38.992 141.18 38.16L141.276 39.504C140.892 40.4853 140.359 41.2213 139.676 41.712C139.015 42.2027 138.161 42.448 137.116 42.448C135.879 42.448 134.759 42.1387 133.756 41.52C132.775 40.9013 131.996 39.952 131.42 38.672C130.865 37.3707 130.588 35.6853 130.588 33.616C130.588 31.6747 130.887 30.0747 131.484 28.816C132.103 27.536 132.945 26.576 134.012 25.936C135.1 25.296 136.337 24.976 137.724 24.976Z" fill="#41261D"/>
</svg>
